<?xml version="1.0" encoding="UTF-8" standalone="no"?>
<!-- Created with Inkscape (http://www.inkscape.org/) -->

<svg
   version="1.1"
   id="svg1"
   width="682.66669"
   height="682.66669"
   viewBox="0 0 682.66669 682.66669"
   sodipodi:docname="BoxVaultDark.svg"
   inkscape:version="1.3.2 (091e20e, 2023-11-25, custom)"
   xmlns:inkscape="http://www.inkscape.org/namespaces/inkscape"
   xmlns:sodipodi="http://sodipodi.sourceforge.net/DTD/sodipodi-0.dtd"
   xmlns="http://www.w3.org/2000/svg"
   xmlns:svg="http://www.w3.org/2000/svg">
  <defs
     id="defs1" />
  <sodipodi:namedview
     id="namedview1"
     pagecolor="#505050"
     bordercolor="#ffffff"
     borderopacity="1"
     inkscape:showpageshadow="0"
     inkscape:pageopacity="0"
     inkscape:pagecheckerboard="1"
     inkscape:deskcolor="#505050"
     inkscape:zoom="1.2290039"
     inkscape:cx="341.33334"
     inkscape:cy="341.33334"
     inkscape:window-width="1920"
     inkscape:window-height="1017"
     inkscape:window-x="1912"
     inkscape:window-y="-8"
     inkscape:window-maximized="1"
     inkscape:current-layer="g1" />
  <g
     inkscape:groupmode="layer"
     inkscape:label="Image"
     id="g1">
    <path
       style="fill:#ffffff;stroke-width:1.21045;fill-opacity:1"
       d="M 230.44107,531.07645 C 174.2459,502.23519 127.74308,478.6378 127.10147,478.6378 c -0.64162,0 -3.83267,-2.26629 -7.09123,-5.03619 l -5.92466,-5.0362 v -34.04477 c 0,-30.90056 0.26842,-34.29528 2.90641,-36.75723 3.83842,-3.58226 10.25988,-3.44716 13.5349,0.28477 2.23922,2.55163 2.63027,7.31566 2.63027,32.04393 v 29.04669 l 19.46891,9.74182 c 10.70789,5.358 20.36288,9.74528 21.45553,9.74951 1.49813,0.006 1.98661,-5.82543 1.98661,-23.71512 v -23.7228 l -4.68573,-2.4988 c -7.46915,-3.98314 -12.79654,-12.41227 -12.79654,-20.24697 0,-5.76527 1.03141,-7.89217 6.8794,-14.18618 5.98632,-6.44288 7.7329,-7.4041 13.45374,-7.4041 11.72806,0 22.99612,14.43279 20.22133,25.90063 -0.58822,2.43106 -2.80178,6.76787 -4.919,9.63735 -3.74228,5.07194 -3.84883,6.03066 -3.82517,34.41811 0.0134,16.06048 0.56515,30.07802 1.22614,31.15008 1.76183,2.85749 22.79821,12.24984 25.25707,11.2768 1.68477,-0.66672 2.09806,-12.09847 2.09096,-57.83617 -0.006,-34.54961 -0.6625,-59.43241 -1.66816,-63.16681 -2.52352,-9.37086 -7.2395,-11.72066 -21.03426,-10.4806 -6.30225,0.56652 -17.89529,2.18778 -25.76231,3.60277 -16.87667,3.0355 -134.531386,5.3877 -143.831498,2.87553 -7.327724,-1.97938 -8.325716,-7.27773 -2.15647,-11.44873 4.022693,-2.71972 10.467089,-3.0533 75.986368,-3.93326 64.98446,-0.87277 72.17754,-1.2401 77.94808,-3.98047 4.51522,-2.14424 10.30118,-3.05285 19.96904,-3.13588 12.26034,-0.10535 14.26356,0.32693 20.1757,4.35351 3.61014,2.45873 8.57015,7.99021 11.02229,12.29218 l 4.45843,7.82175 v 66.9259 66.92592 l 47.36777,24.44598 c 26.05227,13.44529 48.22297,24.44602 49.26825,24.44606 1.45931,6e-5 1.8442,-27.81206 1.65804,-119.81197 -0.13334,-65.89663 -0.84852,-120.33582 -1.5893,-120.97598 -0.74077,-0.64016 -7.78353,-4.00819 -15.65055,-7.48452 -7.86703,-3.47632 -18.66352,-8.77718 -23.9922,-11.77968 -5.32869,-3.00249 -11.22896,-5.45908 -13.11172,-5.45908 -3.23291,0 -3.42319,0.76488 -3.42319,13.76135 0,13.65465 -0.0428,13.80012 -5.5191,18.75861 -4.68335,4.24053 -14.00782,8.41191 -18.87711,8.44484 -1.56005,0.0111 -29.97013,-16.08809 -41.22949,-23.36279 -10.87493,-7.02632 -12.24991,-10.71757 -12.24991,-32.88584 0,-23.27821 -0.94165,-28.54481 -5.35448,-29.94766 -1.86267,-0.59213 -15.11856,-6.88298 -29.45756,-13.97964 -14.339,-7.09665 -26.67592,-12.90301 -27.4154,-12.90301 -0.73948,0 -1.3445,9.71188 -1.3445,21.58193 0,11.87007 -0.80294,26.33685 -1.78431,32.1484 -1.46309,8.66417 -1.39156,10.82303 0.39732,11.9916 3.2462,2.12056 21.82606,1.77022 27.98841,-0.52774 4.44464,-1.65741 6.10602,-1.57797 9.62764,0.46044 6.54436,3.78802 7.92407,9.89102 3.63903,16.09682 -4.35388,6.30553 -9.83914,7.96497 -14.70657,4.44915 -3.14526,-2.27186 -10.91621,-2.61375 -59.408024,-2.61375 H 43.121235 l -3.578591,-3.92826 c -3.459463,-3.7975 -3.565417,-4.86054 -3.182996,-31.93416 l 0.39558,-28.00588 -6.629822,-4.95268 c -5.855766,-4.37444 -6.62982,-5.71052 -6.62982,-11.44361 0,-5.24458 1.078251,-7.60286 5.615521,-12.2819 9.566736,-9.86566 20.620373,-7.13747 27.565778,6.80364 2.157794,4.3312 0.155552,10.82315 -5.214313,16.90661 -3.503068,3.96861 -3.587317,4.80778 -2.680165,26.69636 0.682298,16.46305 1.523903,22.97232 3.099692,23.97409 1.650371,1.04918 52.769501,1.31655 61.408831,0.32119 1.02894,-0.1185 1.39286,-14.60403 1.03215,-41.08297 l -0.55717,-40.89985 4.15638,-3.97237 c 2.28602,-2.1848 52.91889,-29.1818 112.51752,-59.99333 86.83639,-44.893039 109.1673,-55.81377 112.41957,-54.977766 3.84961,0.989557 135.79676,68.593856 139.14878,71.294136 0.87411,0.70416 19.54428,10.5538 41.48925,21.8881 21.94498,11.3343 40.67887,21.57568 41.63087,22.75862 1.08291,1.34559 1.91271,14.45866 2.21646,35.02617 0.53039,35.91327 0.0186,38.30262 -8.20389,38.30262 -8.46442,0 -9.58753,-3.51894 -9.58753,-30.04004 0,-17.96875 -0.4953,-24.04557 -1.95987,-24.04557 -1.07792,0 -14.66642,6.04051 -30.19666,13.42337 l -28.2368,13.42335 v 21.89563 c 0,25.47586 -0.98414,28.43831 -12.27003,36.93519 -8.90089,6.70128 -45.27151,25.77158 -49.15122,25.77158 -3.86631,0 -16.11969,-7.76539 -18.01444,-11.41638 -0.89019,-1.71531 -1.61854,-9.06747 -1.61854,-16.33815 0,-11.10331 -0.4129,-13.21941 -2.57946,-13.21941 -1.41873,0 -14.28401,5.71587 -28.58954,12.70192 l -26.01005,12.70193 -0.17799,46.7103 c -0.29195,76.60876 0.37574,194.16407 1.10716,194.92868 1.02927,1.07599 22.22638,-9.72404 32.76122,-16.69204 5.11073,-3.38035 9.75903,-6.14609 10.32956,-6.14609 0.57054,0 12.70453,-5.67385 26.96445,-12.60854 l 25.92712,-12.60856 0.28283,-5.82972 c 0.15555,-3.20635 0.33435,-33.8559 0.39732,-68.11012 0.11431,-62.20352 0.11908,-62.28795 3.80312,-68.39825 2.02875,-3.36483 6.62738,-8.71193 10.21919,-11.88245 5.80194,-5.12143 7.53431,-5.76458 15.52711,-5.76458 4.9481,0 16.08352,1.57666 24.74538,3.50368 14.12972,3.14347 22.56611,3.60683 82.05995,4.50712 65.80749,0.99584 66.33798,1.03117 69.84572,4.65064 l 3.5346,3.64716 -3.88985,4.32795 -3.88984,4.32794 -61.18798,-0.86294 c -56.05389,-0.79052 -63.19811,-1.21464 -85.14463,-5.05459 -19.06506,-3.33578 -25.17557,-3.84458 -29.9263,-2.49186 -10.2299,2.91288 -10.48364,4.65303 -10.48364,71.89598 0,67.90597 -1.62599,62.58239 16.52261,54.0963 7.4839,-3.49939 11.05668,-6.18377 12.13956,-9.12096 0.84398,-2.28919 1.5345,-15.46787 1.5345,-29.28597 v -25.12382 l -4.68648,-5.17365 c -2.57756,-2.84551 -5.14864,-6.67529 -5.7135,-8.51061 -1.95249,-6.34397 0.87642,-14.53729 7.31003,-21.17193 7.34786,-7.57745 14.52156,-8.56225 23.00147,-3.15763 7.31502,4.66219 10.28514,10.12536 10.28514,18.91821 0,9.13195 -3.92072,15.54419 -11.88843,19.44326 l -5.59385,2.7374 v 22.86851 c 0,17.72973 0.4666,22.86851 2.07644,22.86851 1.14204,0 10.34351,-4.42426 20.4477,-9.83169 l 18.37126,-9.83171 1.11918,-24.99615 c 0.61556,-13.74789 0.68493,-26.15256 0.15418,-27.56594 -1.35696,-3.61357 4.99993,-11.36135 9.32175,-11.36135 1.96947,0 5.13589,1.70698 7.0365,3.79329 3.30406,3.62691 3.45563,5.19498 3.45563,35.75044 v 31.95714 l -4.37057,4.31612 c -2.40382,2.37386 -16.52871,10.28756 -31.38865,17.58598 -14.85993,7.29841 -62.56261,31.6765 -106.00594,54.17351 -70.46367,36.48943 -79.81116,40.9028 -86.61676,40.89566 -6.81741,-0.007 -18.4969,-5.58584 -109.80191,-52.44665 z M 508.9127,415.42086 c 4.80034,-4.95033 2.0384,-12.17511 -4.65439,-12.17511 -1.83564,0 -4.19575,0.88504 -5.24468,1.96675 -1.04894,1.08171 -1.90716,3.51556 -1.90716,5.40856 0,6.9019 7.00589,9.75013 11.80623,4.7998 z M 183.69684,412.7517 c 2.67941,-2.76312 2.37629,-9.42319 -0.48034,-10.55363 -1.31312,-0.51963 -4.17386,-0.48244 -6.35719,0.0827 -3.057,0.79124 -3.96969,2.08794 -3.96969,5.63995 0,2.53687 0.47679,5.10417 1.05953,5.70512 1.72684,1.78081 7.69192,1.2459 9.74769,-0.87411 z m 70.91165,-102.28242 c 1.99212,-0.78833 2.50889,-3.59493 2.48961,-13.5214 -0.0134,-6.8896 -0.54978,-13.35663 -1.19198,-14.37117 -1.68165,-2.65662 -33.12673,-18.64237 -36.67088,-18.64237 -2.59904,0 -3.09819,1.73001 -3.90123,13.5214 -0.63999,9.39723 -0.3457,14.10062 0.96488,15.4204 2.63341,2.65192 31.67369,18.53743 33.93904,18.56521 1.02116,0.0125 2.98791,-0.4249 4.37056,-0.97207 z m 197.23409,-9.20737 18.24583,-10.20219 v -16.02113 c 0,-8.81161 -0.63876,-16.02112 -1.41944,-16.02112 -0.7807,0 -10.43568,4.38799 -21.45553,9.75108 l -20.03609,9.75108 v 15.37961 c 0,8.45878 0.47679,15.87128 1.05953,16.47224 2.1753,2.24327 5.81189,0.83988 23.6057,-9.10957 z m -49.13482,-30.43789 c 33.12584,-16.94349 75.40709,-38.14751 93.95834,-47.12004 18.55124,-8.97252 33.71855,-17.05121 33.70513,-17.95263 -0.0135,-0.90144 -42.34997,-23.27905 -94.08118,-49.72803 -92.36312,-47.22317 -94.16181,-48.05661 -99.89269,-46.28594 -11.4672,3.54301 -184.16862,93.56152 -184.16862,95.99565 0,1.33793 5.04007,4.85964 11.52241,8.05121 6.33734,3.12017 29.75962,14.67739 52.04953,25.68273 22.28991,11.00533 57.51014,28.34429 78.26718,38.53101 20.75706,10.18675 39.33218,19.67132 41.27806,21.07687 1.94589,1.40554 4.34687,2.55552 5.33551,2.55552 0.98863,0 28.90048,-13.86285 62.02633,-30.80635 z m -70.09366,-14.5071 c -23.60323,-5.05947 -37.90883,-14.03306 -46.86909,-29.39991 -4.68351,-8.03223 -5.63704,-11.34559 -6.1234,-21.2779 -0.91661,-18.71888 6.42625,-31.8259 25.19198,-44.96765 25.32329,-17.73405 61.05617,-14.46941 84.27588,7.69964 11.94174,11.40141 15.8402,19.62474 15.82958,33.39057 -0.01,12.32264 -2.27228,16.94517 -16.28105,33.26026 -10.5948,12.33904 -20.73454,18.1288 -36.15766,20.64588 -10.56802,1.72472 -14.28221,1.84608 -19.86624,0.64911 z m 28.67802,-20.41288 c 17.78572,-6.86243 26.97745,-19.74462 25.8238,-36.19207 -0.75521,-10.767 -3.61019,-15.76761 -13.44989,-23.558 -9.30426,-7.36647 -22.40916,-11.14179 -35.35875,-10.18631 -13.42822,0.99081 -32.28863,10.52221 -37.85246,19.12934 -6.59497,10.20227 -4.14651,30.96189 4.81975,40.86493 11.25474,12.43062 37.49685,17.08811 56.01755,9.94211 z m -32.12589,-14.45185 c -13.61922,-6.64432 -16.41835,-9.90759 -16.41835,-19.14068 0,-9.12904 4.15728,-13.82658 18.45586,-20.85421 l 9.41326,-4.62656 8.83906,3.41045 c 4.86147,1.87574 11.82182,6.04337 15.46745,9.2614 5.63053,4.97012 6.62841,6.79312 6.62841,12.10929 0,5.16012 -1.0276,7.18877 -5.85594,11.56056 -6.03829,5.46736 -20.13178,13.02259 -24.34073,13.04857 -1.31117,0.009 -6.79623,-2.13788 -12.18902,-4.76882 z m 19.35468,-14.39876 c 7.94132,-3.90527 7.09338,-8.73356 -2.05821,-11.71975 -12.95201,-4.22628 -21.43977,3.67941 -11.86197,11.04851 5.36934,4.13115 6.7492,4.19768 13.92018,0.67124 z M 282.7193,509.93992 c -5.69387,-5.48507 -6.19303,-9.54455 -1.87044,-15.21157 2.84644,-3.73171 2.99966,-6.02815 2.14345,-32.12703 l -0.92211,-28.10804 -5.86831,-4.00481 c -6.49872,-4.43503 -11.13296,-12.87642 -11.13296,-20.27894 0,-5.48644 6.97609,-16.32991 13.22005,-20.54895 2.39158,-1.61598 7.23689,-2.80442 11.43383,-2.80442 6.61173,0 8.00932,0.74857 15.15425,8.11675 6.92401,7.14036 7.87081,8.94077 7.87081,14.9669 0,7.92464 -4.38655,16.22003 -11.23713,21.2505 l -4.65585,3.41885 0.0354,28.16041 c 0.0319,25.42497 0.33723,28.55843 3.14326,32.25781 4.24556,5.59724 3.95257,9.64075 -1.092,15.07067 -5.44592,5.86193 -10.01926,5.81734 -16.22221,-0.15813 z m 13.22742,-92.8801 c 5.61966,-5.79525 1.34859,-15.45302 -6.83399,-15.45302 -5.66372,0 -8.15082,2.75056 -8.15082,9.01426 0,2.79442 0.85822,5.9658 1.90716,7.04751 2.70025,2.78464 10.1221,2.43915 13.07765,-0.60875 z m 89.25552,90.95347 c -4.85669,-5.95218 -5.00386,-7.60111 -1.14079,-12.78165 2.62421,-3.51917 2.8319,-6.58905 2.16212,-31.95967 l -0.74094,-28.06655 -6.0912,-6.12815 c -11.34279,-11.41162 -11.54287,-23.73766 -0.56902,-35.05442 11.93315,-12.306 22.44344,-11.02418 33.63066,4.10153 8.3205,11.24979 5.83421,24.32577 -6.18497,32.52822 l -6.10881,4.16894 0.0354,28.05421 c 0.0318,25.31958 0.33829,28.45364 3.14324,32.15163 4.14857,5.46935 3.98362,6.95943 -1.43229,12.93834 -6.00163,6.62552 -11.32371,6.64068 -16.70335,0.0476 z m 14.03241,-91.01175 c 3.00758,-1.19018 3.42906,-10.51754 0.60678,-13.42799 -2.70025,-2.78464 -10.1221,-2.43915 -13.07766,0.60874 -2.96411,3.05674 -3.26469,9.08937 -0.59031,11.84733 2.03572,2.09933 8.91806,2.61146 13.06119,0.97192 z M 26.093864,337.56848 c -4.949696,-4.01508 -5.25359,-6.57292 -1.22735,-10.33047 2.691473,-2.51186 9.133858,-2.7319 70.960647,-2.42371 66.279169,0.33038 68.097019,0.42499 71.815859,3.73787 3.41491,3.04213 3.5785,3.73149 1.55835,6.5671 -3.40366,4.77756 -14.27487,5.55385 -79.932913,5.70778 -57.373698,0.13452 -59.101549,0.0454 -63.174593,-3.25857 z m 495.646736,2.18086 c -7.47337,-0.78175 -12.24824,-4.62534 -11.59238,-9.33143 0.865,-6.20673 6.70891,-7.40619 28.29114,-5.80673 10.92032,0.8093 41.84207,1.01348 68.71503,0.45373 45.77636,-0.95348 49.0612,-0.82984 52.04951,1.95903 4.12347,3.84829 4.02176,6.008 -0.48874,10.3778 -3.66021,3.54604 -3.99148,3.56225 -67.14787,3.2881 -34.90823,-0.15153 -66.33024,-0.57476 -69.82669,-0.9405 z m -7.74221,-33.3292 c -7.0385,-5.7095 -7.99624,-9.09305 -4.15035,-14.66285 4.22655,-6.1211 9.38062,-7.51647 15.57068,-4.21546 4.1156,2.19477 6.62241,2.29634 17.25612,0.69924 6.84257,-1.02771 14.58659,-1.73118 17.20893,-1.56328 18.02455,1.15404 66.08356,1.87355 70.32564,1.05286 l 5.16603,-0.99944 v -19.27997 c 0,-14.4149 0.5888,-20.08277 2.3334,-22.4614 2.95829,-4.0334 3.02056,-5.63987 0.21862,-5.63987 -1.21872,0 -4.43705,-2.13972 -7.15184,-4.75496 -6.46077,-6.22385 -6.47631,-12.23859 -0.0523,-20.27545 6.91097,-8.64618 13.44541,-8.5145 22.13446,0.44605 8.39367,8.65593 8.60628,14.40751 0.73439,19.86596 -5.32989,3.6958 -5.58056,4.28315 -4.81163,11.27423 2.35285,21.39218 2.77282,42.86378 0.92818,47.45623 -3.84843,9.58128 -6.03127,10.07899 -52.26509,11.91691 -31.44954,1.2502 -45.45758,1.19204 -54.50625,-0.22627 -11.29018,-1.76964 -12.56544,-1.66565 -17.48229,1.42568 -6.52278,4.101 -6.32804,4.10198 -11.45663,-0.0581 z"
       id="path1" />
  </g>
</svg>
